<svg width="38" height="38" viewBox="0 0 38 38" fill="none" xmlns="http://www.w3.org/2000/svg">
<g filter="url(#filter0_i)">
<g style="mix-blend-mode:exclusion" filter="url(#filter1_f)">
<circle cx="19" cy="19" r="13.5" stroke="white" stroke-width="3"/>
</g>
<g opacity="0.16" filter="url(#filter2_f)">
<path d="M19.9961 28H17.8281V15.3203H19.9961V28ZM17.6523 11.957C17.6523 11.6055 17.7578 11.3086 17.9688 11.0664C18.1875 10.8242 18.5078 10.7031 18.9297 10.7031C19.3516 10.7031 19.6719 10.8242 19.8906 11.0664C20.1094 11.3086 20.2188 11.6055 20.2188 11.957C20.2188 12.3086 20.1094 12.6016 19.8906 12.8359C19.6719 13.0703 19.3516 13.1875 18.9297 13.1875C18.5078 13.1875 18.1875 13.0703 17.9688 12.8359C17.7578 12.6016 17.6523 12.3086 17.6523 11.957Z" fill="black"/>
<path d="M19.9961 28V30H21.9961V28H19.9961ZM17.8281 28H15.8281V30H17.8281V28ZM17.8281 15.3203V13.3203H15.8281V15.3203H17.8281ZM19.9961 15.3203H21.9961V13.3203H19.9961V15.3203ZM17.9688 11.0664L16.4845 9.72583L16.4724 9.73923L16.4606 9.75284L17.9688 11.0664ZM17.9688 12.8359L16.4822 14.1739L16.4943 14.1873L16.5066 14.2006L17.9688 12.8359ZM19.9961 26H17.8281V30H19.9961V26ZM19.8281 28V15.3203H15.8281V28H19.8281ZM17.8281 17.3203H19.9961V13.3203H17.8281V17.3203ZM17.9961 15.3203V28H21.9961V15.3203H17.9961ZM19.6523 11.957C19.6523 11.9831 19.648 12.0503 19.616 12.1402C19.5832 12.2328 19.5329 12.3156 19.4769 12.38L16.4606 9.75284C15.9016 10.3947 15.6523 11.1718 15.6523 11.957H19.6523ZM19.453 12.407C19.3386 12.5336 19.2025 12.6185 19.0803 12.6647C18.9688 12.7069 18.9062 12.7031 18.9297 12.7031V8.70312C18.1179 8.70312 17.1862 8.94901 16.4845 9.72583L19.453 12.407ZM18.9297 12.7031C18.9531 12.7031 18.8906 12.7069 18.7791 12.6647C18.6569 12.6185 18.5208 12.5336 18.4064 12.407L21.3748 9.72583C20.6732 8.94901 19.7415 8.70312 18.9297 8.70312V12.7031ZM18.4064 12.407C18.3503 12.3448 18.2964 12.2607 18.26 12.1621C18.2246 12.0659 18.2188 11.9911 18.2188 11.957H22.2188C22.2188 11.1518 21.9525 10.3654 21.3748 9.72583L18.4064 12.407ZM18.2188 11.957C18.2188 11.9234 18.2245 11.8442 18.263 11.7409C18.3028 11.6345 18.3629 11.5416 18.4285 11.4713L21.3527 14.2006C21.9518 13.5587 22.2188 12.7619 22.2188 11.957H18.2188ZM18.4285 11.4713C18.5471 11.3442 18.6836 11.2636 18.7992 11.2214C18.9043 11.1829 18.9597 11.1875 18.9297 11.1875V15.1875C19.7222 15.1875 20.6463 14.9574 21.3527 14.2006L18.4285 11.4713ZM18.9297 11.1875C18.8997 11.1875 18.955 11.1829 19.0602 11.2214C19.1758 11.2636 19.3122 11.3442 19.4309 11.4713L16.5066 14.2006C17.213 14.9574 18.1372 15.1875 18.9297 15.1875V11.1875ZM19.4553 11.498C19.5209 11.5708 19.5771 11.6627 19.6132 11.763C19.6481 11.8599 19.6523 11.9314 19.6523 11.957H15.6523C15.6523 12.7415 15.9019 13.5292 16.4822 14.1739L19.4553 11.498Z" fill="black"/>
</g>
</g>
<defs>
<filter id="filter0_i" x="4" y="4" width="30" height="34" filterUnits="userSpaceOnUse" color-interpolation-filters="sRGB">
<feFlood flood-opacity="0" result="BackgroundImageFix"/>
<feBlend mode="normal" in="SourceGraphic" in2="BackgroundImageFix" result="shape"/>
<feColorMatrix in="SourceAlpha" type="matrix" values="0 0 0 0 0 0 0 0 0 0 0 0 0 0 0 0 0 0 127 0" result="hardAlpha"/>
<feOffset dy="4"/>
<feGaussianBlur stdDeviation="2"/>
<feComposite in2="hardAlpha" operator="arithmetic" k2="-1" k3="1"/>
<feColorMatrix type="matrix" values="0 0 0 0 0 0 0 0 0 0 0 0 0 0 0 0 0 0 0.25 0"/>
<feBlend mode="normal" in2="shape" result="effect1_innerShadow"/>
</filter>
<filter id="filter1_f" x="0" y="0" width="38" height="38" filterUnits="userSpaceOnUse" color-interpolation-filters="sRGB">
<feFlood flood-opacity="0" result="BackgroundImageFix"/>
<feBlend mode="normal" in="SourceGraphic" in2="BackgroundImageFix" result="shape"/>
<feGaussianBlur stdDeviation="2" result="effect1_foregroundBlur"/>
</filter>
<filter id="filter2_f" x="13.6523" y="6.70312" width="10.5664" height="25.2969" filterUnits="userSpaceOnUse" color-interpolation-filters="sRGB">
<feFlood flood-opacity="0" result="BackgroundImageFix"/>
<feBlend mode="normal" in="SourceGraphic" in2="BackgroundImageFix" result="shape"/>
<feGaussianBlur stdDeviation="2" result="effect1_foregroundBlur"/>
</filter>
</defs>
</svg>
